<?xml version="1.0" encoding="UTF-8" standalone="no"?>
<!-- Created with Inkscape (http://www.inkscape.org/) -->

<svg
   width="32"
   height="32"
   viewBox="0 0 8.4666666 8.4666666"
   version="1.1"
   id="svg1740"
   inkscape:version="1.2.2 (b0a8486541, 2022-12-01)"
   sodipodi:docname="quiriri.svg"
   xmlns:inkscape="http://www.inkscape.org/namespaces/inkscape"
   xmlns:sodipodi="http://sodipodi.sourceforge.net/DTD/sodipodi-0.dtd"
   xmlns="http://www.w3.org/2000/svg"
   xmlns:svg="http://www.w3.org/2000/svg">
  <sodipodi:namedview
     id="namedview1742"
     pagecolor="#505050"
     bordercolor="#ffffff"
     borderopacity="1"
     inkscape:showpageshadow="0"
     inkscape:pageopacity="0"
     inkscape:pagecheckerboard="1"
     inkscape:deskcolor="#505050"
     inkscape:document-units="mm"
     showgrid="false"
     inkscape:zoom="24"
     inkscape:cx="16"
     inkscape:cy="16"
     inkscape:window-width="1920"
     inkscape:window-height="948"
     inkscape:window-x="0"
     inkscape:window-y="0"
     inkscape:window-maximized="1"
     inkscape:current-layer="layer1" />
  <defs
     id="defs1737" />
  <g
     inkscape:label="Camada 1"
     inkscape:groupmode="layer"
     id="layer1">
    <path
       id="path300"
       style="fill:#1b7a3a;fill-opacity:1;fill-rule:nonzero;stroke:none;stroke-width:0.00417799"
       d="m 4.4945865,0.26458365 c -0.013465,-1.26e-4 -0.027945,0.008653 -0.028291,0.0234412 C 4.4559034,0.70217504 4.3321904,1.093637 4.1016903,1.4391789 3.822389,1.1400751 3.6020118,0.78381995 3.4895117,0.41751851 c -0.0037,-0.0122522 -0.015679,-0.0249375 -0.030448,-0.0206672 -0.011128,0.003216 -0.022256,0.006459 -0.033428,0.009685 -0.01234,0.003562 -0.025329,0.0156422 -0.020872,0.0301172 0.1453243,0.47312474 0.472123,0.91856419 0.8356489,1.24935199 0.3101767,0.282214 0.6709019,0.4984395 1.0820166,0.598813 0.3000871,0.073244 0.6103821,0.099757 0.9198226,0.1004413 0.1463629,0.3242178 0.4810862,0.4497633 0.8076746,0.5342139 0.044384,0.011447 0.069638,-0.054979 0.024989,-0.066547 C 6.7769512,2.7758922 6.4680826,2.6697303 6.3221098,2.3844931 c 0.080154,-9.227e-4 0.1601781,-0.00293 0.2398986,-0.00679 0.3839209,-0.018423 0.7667085,-0.067909 1.1433554,-0.1433701 0.016069,-0.00322 0.026782,-0.021317 0.018906,-0.03643 -0.00557,-0.010601 -0.011054,-0.021168 -0.016556,-0.031769 -0.00124,-0.00236 -0.00278,-0.00438 -0.0044,-0.00608 -0.00513,-0.00645 -0.013277,-0.0104 -0.023972,-0.00827 C 7.2843416,2.230431 6.8822131,2.2815536 6.4794118,2.295864 5.9640239,2.3142057 5.408869,2.2840715 4.9364375,2.0607913 4.6597772,1.9300236 4.3937056,1.7359314 4.163206,1.5030175 c 2.602e-4,-3.655e-4 6.8e-4,-7.482e-4 9.273e-4,-0.0011 0.2450498,-0.3612194 0.3784174,-0.77426912 0.3890269,-1.20901818 8.66e-5,-0.002756 -3.036e-4,-0.005297 -9.274e-4,-0.007678 -0.00112,-0.0107222 -0.00845,-0.0201553 -0.02277,-0.0203156 -0.011647,-1.2609e-4 -0.023283,-1.7156e-4 -0.034887,-2.97e-4 z m 0.252902,0.0312965 c 0,0 -0.1117298,0.33031421 0.034634,0.56480098 0.1463196,0.23452592 0.4953379,0.28449592 0.4953379,0.28449592 0,0 0.1117285,-0.33033317 -0.034634,-0.56485964 C 5.0964635,0.34579117 4.7474891,0.29588038 4.7474885,0.2958802 Z m -0.8074213,0.04104 c 0,0 -0.1920377,0.24720923 -0.1375196,0.48774241 0.054474,0.24049291 0.3349186,0.38322571 0.3349186,0.38322571 0,0 0.1920582,-0.2471499 0.1375835,-0.48768307 C 4.220533,0.47971293 3.9400672,0.33692018 3.9400672,0.33692018 Z m 1.6456705,0.11307866 c -0.013422,-0.006131 -0.028248,0.003225 -0.03362,0.0151764 C 5.3287195,0.96071244 5.2458243,1.499047 5.3082231,2.0378776 c 0.00161,0.013703 0.011443,0.019971 0.022139,0.020374 0.00253,4.455e-4 0.00532,6.906e-4 0.00831,2.97e-4 0.011518,-0.00144 0.023073,-0.00288 0.034634,-0.00431 0.014633,-0.00184 0.022473,-0.016874 0.020872,-0.030053 -0.060538,-0.5233547 0.021638,-1.04560111 0.2386295,-1.52670716 0.00607,-0.0134211 -0.00322,-0.0276019 -0.015413,-0.0331269 -0.010566,-0.004777 -0.021131,-0.009594 -0.031654,-0.0143482 z M 3.3676599,0.62000028 c 0,0 -0.3084502,0.0654901 -0.4246745,0.2836108 -0.1162246,0.21812012 0.0039,0.50622402 0.0039,0.50622402 0,0 0.3084507,-0.065491 0.4246751,-0.2836108 0.1161804,-0.21807985 -0.0039,-0.50622402 -0.0039,-0.50622402 z m 2.5459554,0.23814304 c -0.061304,0.003453 -0.12424,0.0164599 -0.1829367,0.0448157 C 5.4958916,1.0163927 5.4170093,1.3332467 5.4170093,1.3332467 c 0,0 0.3016748,0.1330383 0.5365045,0.019602 0.234787,-0.1134338 0.3137329,-0.43034706 0.3137329,-0.43034706 0,0 -0.169718,-0.0748049 -0.3536314,-0.0643633 z m -3.7583239,0.0230323 c 0,0 -0.247315,0.19345688 -0.2538542,0.43979408 -0.00658,0.2463781 0.2301305,0.4524314 0.2301305,0.4524314 0,0 0.2473144,-0.1934759 0.2538534,-0.4398534 C 2.3919649,1.0871695 2.1552914,0.88117558 2.1552914,0.88117562 Z M 4.8210688,1.1888189 c -0.015283,6.331e-4 -0.030647,0.00213 -0.046053,0.00455 -0.2464791,0.038698 -0.4082467,0.3062264 -0.4082467,0.3062264 0,0 0.2378227,0.2047243 0.4843011,0.1659855 0.2465218,-0.038698 0.4082454,-0.3061671 0.4082454,-0.3061671 0,0 -0.2090293,-0.179985 -0.4382491,-0.1705919 z m 2.0041223,0.1429568 c 0,0 -0.432353,0.013449 -0.6433231,0.2794187 -0.2109706,0.2659688 -0.1207103,0.6837245 -0.1207103,0.6837245 0,0 0.4322899,-0.013508 0.64326,-0.2794774 C 6.9154316,1.7494727 6.8251911,1.3317757 6.8251911,1.3317757 Z m -5.4058973,0.022554 c -0.00532,0.00121 -0.010318,0.00472 -0.014016,0.011159 -0.00569,0.010037 -0.011394,0.02004 -0.017064,0.029996 -0.00641,0.011245 -0.00693,0.028465 0.00628,0.035959 0.4448475,0.2530691 0.7516754,0.6203074 0.9127178,1.0989543 -0.5294609,0.050386 -1.0714751,0.03399 -1.59435423,0.00219 -0.0138115,-8.632e-4 -0.0273818,0.00922 -0.0282906,0.023441 -8.0366e-4,0.012615 -0.001611,0.025295 -0.002411,0.03791 -8.6546e-4,0.013663 0.009366,0.027044 0.0237898,0.02793 1.25642523,0.07643 2.61550593,0.059644 3.66438193,-0.7241139 0.011604,-0.00866 0.011401,-0.025772 0.00315,-0.036373 -0.00785,-0.01 -0.015679,-0.02 -0.023468,-0.029996 -0.00814,-0.0104 -0.019215,-0.011436 -0.028482,-0.00732 -0.00284,8.634e-4 -0.00563,0.00213 -0.00837,0.0042 C 3.7447282,2.252734 3.0821291,2.445956 2.3953062,2.5213772 2.2285476,2.0157224 1.9106855,1.6259317 1.4416746,1.359358 c -0.0021,-0.00115 -0.00414,-0.00202 -0.00628,-0.00259 -0.00507,-0.00264 -0.010776,-0.00363 -0.016111,-0.00242 z m 2.1921335,0.025334 c 0,0 -0.2917984,0.1184361 -0.3670152,0.3534063 -0.075217,0.2350099 0.094577,0.4975441 0.094577,0.4975441 0,0 0.2918622,-0.1184362 0.3670788,-0.3534064 0.075217,-0.2350095 -0.094641,-0.497543 -0.094641,-0.497544 z M 2.7137432,1.618043 c -0.044618,-0.0015 -0.090344,0.00277 -0.1353,0.015591 C 2.3386768,1.70196 2.211428,1.9870996 2.211428,1.9870996 c 0,0 0.2615543,0.1742995 0.5013638,0.105933 0.239767,-0.068326 0.3669521,-0.353465 0.3669521,-0.353465 0,0 -0.1726473,-0.1150527 -0.3660007,-0.1215228 z M 1.201977,1.7842663 c -0.1196995,0.00236 -0.20945097,0.025743 -0.20945097,0.025743 0,0 0.0293354,0.3655147 0.26888657,0.5333281 0.2395499,0.1678122 0.5985409,0.074401 0.5985409,0.074401 0,0 -0.029273,-0.3655148 -0.2688235,-0.5333275 C 1.4713551,1.8005046 1.3216765,1.7818807 1.201977,1.7842646 Z m 2.779511,0.4643584 c -0.2058963,0.00558 -0.38909,0.1521685 -0.38909,0.1521685 0,0 0.1482429,0.2664828 0.387187,0.3128397 0.2389872,0.046318 0.4782745,-0.1450827 0.4782745,-0.1450827 0,0 -0.1481997,-0.266523 -0.387187,-0.3128397 -0.029873,-0.00579 -0.059771,-0.00788 -0.089184,-0.00709 z m 3.4870275,0.097962 c -0.1510301,-0.0073 -0.2898833,0.05533 -0.2898833,0.05533 0,0 0.067058,0.2595213 0.2605776,0.3509857 0.1935628,0.091505 0.4402788,-0.019723 0.4402788,-0.019723 0,0 -0.067013,-0.2595985 -0.2605768,-0.3511031 C 7.5705405,2.3592108 7.5188586,2.3490184 7.4685155,2.3465902 Z M 5.145839,2.5387901 c -0.154952,-0.0075 -0.2973676,0.056689 -0.2973676,0.056689 0,0 0.068758,0.2662952 0.2673009,0.3601382 0.1985861,0.093842 0.4516964,-0.02031 0.4516964,-0.02031 0,0 -0.068758,-0.2662952 -0.2673007,-0.3601377 C 5.250541,2.5517116 5.1974891,2.5412946 5.145839,2.5387966 Z m -0.5351728,0.050427 c -0.013293,-2.417e-4 -0.028117,0.00873 -0.028291,0.023441 -0.00593,0.5978858 0.14531,1.1784393 0.4011419,1.7148919 -0.43281,0.2855193 -0.5348137,0.7915792 -0.5781163,1.2739751 -0.00593,0.066191 0.098159,0.075187 0.1040915,0.00892 0.039406,-0.4389009 0.1218776,-0.9265978 0.5195685,-1.1900672 0.2602052,0.5160959 0.6161687,0.9890992 1.020615,1.3941395 0.00173,0.00173 0.00352,0.00306 0.00544,0.00421 0.00849,0.00738 0.020878,0.00929 0.0314,-0.00104 0.00906,-0.00895 0.01812,-0.017899 0.027215,-0.026808 0.00936,-0.00923 0.013737,-0.025772 0.00315,-0.036373 C 5.6727205,5.3097109 5.2860175,4.7813409 5.0247731,4.2032886 5.5075972,4.406413 6.0207947,4.517003 6.5423749,4.5644893 c 0.5488606,0.043699 1.0987414,0.01612 1.6382487,-0.094774 0.013508,-0.00276 0.023963,-0.016148 0.020933,-0.030053 -0.00241,-0.011206 -0.00488,-0.022393 -0.0073,-0.033599 -0.00296,-0.013381 -0.016309,-0.023608 -0.03051,-0.020667 -1.025926,0.2113077 -2.1474925,0.1448842 -3.1158258,-0.265719 -0.013508,-0.0057 -0.028099,0.00299 -0.033558,0.015234 -0.00334,0.0075 -0.00665,0.014981 -0.010022,0.022439 C 4.7914372,3.6716892 4.6675794,3.151948 4.6728622,2.617833 4.6729487,2.604654 4.6641022,2.590145 4.6490792,2.589903 4.6362632,2.5896975 4.6235022,2.5894576 4.6106372,2.5892699 Z m -1.0034249,0.027637 c 0,0 -0.3121552,0.04527 -0.4426262,0.2553263 -0.1305139,0.2100986 -0.029874,0.5054569 -0.029874,0.5054569 0,0 0.3121557,-0.045346 0.4426262,-0.2554449 0.1304713,-0.2100989 0.029873,-0.5053387 0.029873,-0.5053386 z m -1.1956866,0.03106 c -0.00848,-0.00738 -0.020853,-0.00925 -0.031332,0.00104 -0.00909,0.00895 -0.018182,0.017898 -0.027277,0.026808 -0.00936,0.00927 -0.013737,0.025755 -0.00315,0.036315 0.4441554,0.4448252 0.8308385,0.973213 1.0920397,1.551266 C 2.9590076,4.0602568 2.4458738,3.9496265 1.9242935,3.902141 1.3754329,3.8584819 0.82550903,3.8860207 0.28604508,3.9969135 c -0.0135516,0.00276 -0.0239635,0.016148 -0.0209335,0.030054 0.002409,0.011206 0.004819,0.022434 0.007294,0.033599 0.002906,0.013381 0.0162844,0.023631 0.0304482,0.020724 C 0.67144521,4.0053463 1.052401,3.9655439 1.4341567,3.964375 1.2505964,4.4631772 0.89420626,4.8725597 0.4205192,5.1255079 c -0.0120375,0.00645 -0.0192769,0.021525 -0.0124331,0.034428 0.005438,0.010158 0.0107635,0.020292 0.0161728,0.030411 0.006281,0.01185 0.02196,0.019135 0.0348254,0.012281 C 0.96087524,4.9346836 1.3381141,4.4983248 1.5260041,3.9662662 l 3.809e-4,-0.00143 c 0.6501453,0.00875 1.2998695,0.1308887 1.8922924,0.3821046 0.013508,0.0057 0.028204,-0.00299 0.03362,-0.015234 0.00334,-0.00746 0.00669,-0.015038 0.010022,-0.022497 0.2129188,0.4856612 0.3367765,1.0054624 0.3314931,1.5395767 -1.299e-4,0.013179 0.00876,0.027688 0.023789,0.02793 0.012816,2.059e-4 0.025619,4.46e-4 0.038442,6.331e-4 0.013292,2.4e-4 0.028118,-0.00875 0.028291,-0.023504 0.012081,-1.2133469 -0.622423,-2.3556787 -1.4673009,-3.2017964 -0.00173,-0.00167 -0.00352,-0.00306 -0.00544,-0.00421 z m 3.3616865,0.037437 c 0,0 -0.148821,0.4010502 0.022139,0.6937041 0.1709596,0.2926143 0.5970188,0.366043 0.5970188,0.366043 0,0 0.1488847,-0.4010496 -0.022077,-0.6937041 C 6.1993197,2.7587404 5.77324,2.6853518 5.77324,2.6853518 Z M 0.972735,2.7331191 C 0.8998064,2.7302391 0.81904226,2.7398891 0.74723578,2.7780551 0.55575139,2.8798392 0.5006132,3.145987 0.5006132,3.145987 c 0,0 0.2553286,0.1010755 0.44681237,-6.906e-4 C 1.13891,3.0435131 1.1939844,2.7774245 1.1939844,2.7774245 c 0,0 -0.099701,-0.039516 -0.2212494,-0.044287 z m 6.4416735,0.099379 c 0,0 -0.3131247,0.1602919 -0.373359,0.4292839 -0.060322,0.2689517 0.15509,0.5447241 0.15509,0.5447241 0,0 0.3130184,-0.1602915 0.3732959,-0.4292835 C 7.6297136,3.1082315 7.4144085,2.8324989 7.4144085,2.8324981 Z m -5.9556599,0.00161 c 0,0 -0.1488848,0.4009903 0.022077,0.6936448 0.1710015,0.2926545 0.5970182,0.3661017 0.5970182,0.3661017 0,0 0.1488847,-0.4010306 -0.022077,-0.6936448 C 1.8848079,2.9075577 1.4587486,2.8341104 1.4587486,2.8341112 Z m 2.5588951,0.3493342 c 0,0 -0.3523684,0.0152 -0.5217249,0.2341282 -0.1693131,0.2188862 -0.091532,0.5586004 -0.091532,0.5586004 0,0 0.3523054,-0.015239 0.5216618,-0.2341282 0.1693564,-0.2189258 0.091595,-0.5586004 0.091595,-0.5586004 z m -1.3495078,0.08444 c 0,0 -0.1782201,0.2188269 -0.1340947,0.436665 0.04408,0.2177978 0.2938158,0.3521667 0.2938158,0.3521667 0,0 0.1782195,-0.2188269 0.134094,-0.436665 C 2.9178274,3.4022135 2.6681359,3.2678849 2.6681359,3.2678854 Z m 2.5384073,0.066666 c -0.1726819,-0.00685 -0.3183634,0.03791 -0.3183634,0.03791 0,0 0.047852,0.38287 0.3074534,0.5483849 0.259642,0.1655153 0.6327938,0.050899 0.6327938,0.050899 0,0 -0.047938,-0.3828707 -0.3075802,-0.5483855 -0.097366,-0.062068 -0.210695,-0.084702 -0.3143036,-0.088808 z m -4.50022118,0.011752 c -0.12578666,0.0015 -0.23000303,0.039446 -0.23000303,0.039446 0,0 0.0494532,0.2765301 0.24452916,0.3871823 0.19503492,0.110612 0.46184545,0.013404 0.46184545,0.013404 0,0 -0.049453,-0.2765699 -0.24452861,-0.3871818 -0.0731549,-0.041474 -0.15637094,-0.053727 -0.23184297,-0.052847 z m 7.39467018,0.00213 C 7.5635201,3.5370021 7.1228034,3.9110046 6.8543701,4.4082349 c -0.00645,0.012011 -0.00266,0.028586 0.010084,0.035073 0.010306,0.0053 0.020588,0.010544 0.030894,0.015827 0.00452,0.0023 0.00889,0.0031 0.013002,0.00293 0.00858,5.645e-4 0.017299,-0.00306 0.022584,-0.012875 0.2578671,-0.4775989 0.679657,-0.8374902 1.1962573,-1.0187667 0.012903,-0.00449 0.022337,-0.018319 0.017571,-0.032062 -0.00378,-0.010843 -0.00746,-0.021731 -0.011228,-0.032534 -0.00433,-0.012696 -0.018727,-0.022255 -0.032538,-0.017421 z M 4.382249,3.5858056 c -0.1208631,-0.00689 -0.2324137,0.042336 -0.2324137,0.042336 0,0 0.051655,0.2083466 0.2058993,0.282961 0.1542009,0.074616 0.3526163,-0.012811 0.3526163,-0.012811 0,0 -0.051654,-0.208346 -0.2058991,-0.2829609 -0.038559,-0.018652 -0.079915,-0.027228 -0.1202028,-0.029525 z m 2.219663,0.2377297 c -0.05273,0.00352 -0.1067295,0.015194 -0.1569929,0.040097 -0.2010974,0.099607 -0.2662227,0.3730103 -0.2662227,0.3730103 0,0 0.260875,0.1118303 0.4619723,0.012224 0.2010108,-0.099608 0.2661595,-0.3730103 0.2661595,-0.3730103 0,0 -0.1467307,-0.062878 -0.3049162,-0.052315 z m 1.1357435,0.0015 c -0.1743183,-0.00501 -0.336251,0.088809 -0.336251,0.088809 0,0 0.098114,0.2636294 0.309864,0.3385258 0.2117929,0.074938 0.4570881,-0.067197 0.4570881,-0.067197 0,0 -0.098114,-0.263589 -0.3098633,-0.3385264 -0.03971,-0.014043 -0.08061,-0.020459 -0.1208378,-0.021611 z M 4.2104765,4.1206888 C 3.9316938,4.1301988 3.7150749,4.405008 3.7150749,4.405008 c 0,0 0.2352878,0.2593671 0.5141138,0.249894 0.2787821,-0.00951 0.4954009,-0.2843192 0.4954009,-0.2843192 0,0 -0.2352879,-0.259367 -0.5141131,-0.249894 z m -2.2274658,0.05704 c -0.052735,0.00352 -0.106719,0.015194 -0.1569929,0.040096 -0.2010547,0.099648 -0.2661595,0.3729517 -0.2661595,0.3729517 0,0 0.260855,0.1118896 0.4619091,0.012281 0.2010973,-0.099607 0.2662225,-0.3730108 0.2662225,-0.3730108 0,0 -0.1467758,-0.062877 -0.3049792,-0.052315 z m -1.34842962,0.014941 c -0.17429542,-0.00501 -0.33618799,0.088868 -0.33618799,0.088868 0,0 0.0980068,0.2635885 0.30980043,0.3385258 0.21179281,0.074897 0.45708798,-0.067256 0.45708798,-0.067256 0,0 -0.0981131,-0.263589 -0.30986335,-0.3385263 -0.0397032,-0.014043 -0.0806151,-0.020459 -0.12083707,-0.021611 z M 5.6388294,4.4100267 c 0,0 -0.1782194,0.2188078 -0.1340945,0.4366057 0.044124,0.2178381 0.2938157,0.352166 0.2938157,0.352166 0,0 0.1782201,-0.2187866 0.1340946,-0.436665 C 5.8885216,4.544336 5.6388294,4.4100266 5.6388294,4.4100267 Z m -2.6821426,0.046945 c -0.172695,-0.00685 -0.3184272,0.03791 -0.3184272,0.03791 0,0 0.047919,0.3829104 0.3075165,0.5483848 0.2596426,0.1655154 0.6327307,0.050957 0.6327307,0.050957 0,0 -0.047876,-0.3829104 -0.3075165,-0.5483848 -0.097366,-0.062069 -0.2106875,-0.084762 -0.3143035,-0.088869 z m 3.432095,0.1158531 c 0,0 -0.148821,0.4010496 0.022139,0.6937047 0.1709588,0.2926136 0.5970183,0.3660424 0.5970183,0.3660424 0,0 0.1488414,-0.4009902 -0.022077,-0.6936448 C 6.8148603,4.6462727 6.3887799,4.5728249 6.3887799,4.5728249 Z m 1.1252138,0.068083 c -0.1257972,0.0015 -0.2300027,0.039446 -0.2300027,0.039446 0,0 0.049428,0.2765698 0.2444657,0.3871823 0.1950776,0.1106523 0.4619085,0.013462 0.4619085,0.013462 0,0 -0.049428,-0.2765889 -0.2444655,-0.3872412 -0.07317,-0.041478 -0.1564273,-0.053731 -0.231906,-0.052851 z m -6.2434492,0.019252 c 0,0 -0.31308126,0.1602729 -0.37335823,0.4292247 -0.0602782,0.2689926 0.15508993,0.5448425 0.15508993,0.5448425 0,0 0.313145,-0.1603322 0.3734225,-0.4292839 C 1.4859351,4.9359511 1.2705464,4.6601598 1.2705464,4.6601598 Z m 3.088994,0.1423077 c -0.065931,-9.75e-4 -0.1386831,0.00944 -0.2027276,0.045466 -0.1707425,0.09602 -0.2147797,0.3374047 -0.2147797,0.3374047 0,0 0.2327463,0.085745 0.4034888,-0.010273 0.1707425,-0.095979 0.2148433,-0.3374633 0.2148433,-0.3374633 0,0 -0.090939,-0.033467 -0.2008248,-0.035136 z m -2.4830948,0.062768 c 0,0 -0.1488841,0.4009904 0.022077,0.693645 0.1710022,0.2926544 0.5970819,0.3661016 0.5970819,0.3661016 0,0 0.1488848,-0.4010489 -0.022077,-0.693704 C 2.3025686,4.9386239 1.8764456,4.8652353 1.8764456,4.8652355 Z m 3.471106,0.1427202 c 0,0 -0.2437218,0.1979229 -0.2456705,0.4443413 -0.00198,0.246499 0.2385026,0.4481794 0.2385026,0.4481794 0,0 0.2436791,-0.1979234 0.2456704,-0.4443413 0.00198,-0.2464577 -0.2385025,-0.448179 -0.2385025,-0.4481794 z m 2.2416742,0.2901658 c -0.044062,9.75e-4 -0.088909,0.00765 -0.1325088,0.022733 -0.2324923,0.08042 -0.3419599,0.3683453 -0.3419599,0.3683453 0,0 0.2674963,0.1575773 0.5000317,0.077117 0.2324914,-0.080418 0.3419598,-0.3683451 0.3419598,-0.3683451 0,0 -0.1765793,-0.104009 -0.3675228,-0.09985 z m -4.2856952,0.057631 c -0.030127,-0.00127 -0.060779,4.575e-4 -0.091468,0.00596 -0.2455697,0.044061 -0.4013954,0.3150254 -0.4013954,0.3150254 0,0 0.2423468,0.1995343 0.4879159,0.1554748 0.2455692,-0.044062 0.4013323,-0.3149656 0.4013323,-0.3149656 0,0 -0.1855196,-0.1527946 -0.3963845,-0.1614983 z m 3.5020605,0.4597537 c -0.9614541,0.0092 -1.9225712,0.1655533 -2.709229,0.7534021 -0.011604,0.00862 -0.011401,0.025714 -0.00315,0.036315 0.00785,0.010037 0.015672,0.020057 0.023468,0.030054 0.00814,0.01044 0.019258,0.011453 0.028482,0.00738 0.00284,-9.226e-4 0.00563,-0.00219 0.00837,-0.00426 0.5684772,-0.4244698 1.2310331,-0.6176923 1.9178553,-0.6931136 0.1667585,0.5056554 0.4846207,0.8954858 0.9536315,1.1620191 0.00211,0.00115 0.00414,0.00202 0.00622,0.00259 0.010219,0.0053 0.022788,0.00421 0.030195,-0.00874 0.00569,-0.01 0.011345,-0.019999 0.017063,-0.029996 0.00637,-0.011245 0.00693,-0.028465 -0.00628,-0.035959 C 6.6274031,6.7821312 6.3205753,6.4148744 6.1594897,5.9361866 6.3250786,5.9204638 6.4919954,5.9118194 6.6590136,5.9075487 6.6314286,5.9537457 6.4897259,6.2073443 6.5641196,6.4363884 6.6462216,6.6895386 6.961455,6.8159531 6.961455,6.8159531 c 0,0 0.1820297,-0.2838599 0.099841,-0.5369296 C 6.990583,6.0611053 6.7474674,5.9372903 6.681214,5.907017 c 0.3598014,-0.00822 0.7205354,0.00564 1.0726294,0.027101 0.013854,8.633e-4 0.027381,-0.00927 0.028291,-0.023504 8.037e-4,-0.012615 0.00161,-0.025253 0.00241,-0.03791 C 7.7853498,5.859041 7.7751744,5.845678 7.7607564,5.844831 7.4466497,5.8257134 7.1260869,5.8124189 6.8056023,5.8154865 Z m -5.4961607,0.014112 c -0.2432951,-0.00744 -0.48468983,0.00631 -0.72521413,0.05958 -0.0132056,0.00293 -0.0243525,0.016069 -0.0209335,0.030053 0.002719,0.011206 0.005437,0.022376 0.008175,0.033541 0.003216,0.013179 0.0160247,0.023849 0.0304482,0.020667 C 0.8818145,5.911341 1.1640154,5.9052763 1.4464352,5.9229754 1.3575792,5.9251035 1.1515041,5.9447366 1.0258837,6.0761475 0.86241606,6.2471043 0.89787818,6.542278 0.89787818,6.542278 c 0,0 0.30047172,0.01806 0.46393932,-0.1529363 0.1554993,-0.1626533 0.1310504,-0.4371692 0.1283222,-0.463532 0.1409495,0.010037 0.2818911,0.025599 0.4225817,0.042807 0.4031035,0.049298 0.8051326,0.11177 1.1851567,0.2557988 -0.469271,0.2984593 -0.8928278,0.6722528 -1.1632098,1.1608976 -0.00612,0.011044 -0.00729,0.028828 0.00622,0.035959 0.010263,0.00541 0.020544,0.01082 0.030763,0.016178 0.011302,0.00597 0.029026,0.00724 0.03647,-0.00614 0.280042,-0.5059791 0.7269713,-0.8870057 1.2187159,-1.1862303 0.01715,-0.0104 0.019827,-0.03509 0.00191,-0.045288 -6.801e-4,-0.00996 -0.00788,-0.019217 -0.017193,-0.02309 C 2.6895841,5.9603958 2.1128571,5.8938196 1.5533875,5.8434312 1.471816,5.8369196 1.3905276,5.8320934 1.3094296,5.829613 Z m 3.0829045,0.014469 C 4.2957501,5.8402303 4.0852944,5.8480574 3.9472351,5.972872 3.7773154,6.1265351 3.776372,6.4030302 3.7772382,6.4446708 3.7424252,6.4230253 3.7073597,6.4019387 3.6720685,6.3819017 c -0.00793,-0.00421 -0.015803,-0.00833 -0.023722,-0.012517 -0.013249,-0.00697 -0.026343,-0.00558 -0.036346,0.00626 -0.00762,0.00895 -0.015215,0.017939 -0.022838,0.026929 -0.00827,0.00975 -0.0055,0.029754 0.00622,0.035959 0.2514577,0.1326616 0.4936951,0.3138761 0.7063109,0.5274812 -0.2445298,0.3609411 -0.3775927,0.7735569 -0.3882016,1.2077822 -4.32e-5,0.00276 3.462e-4,0.0053 9.274e-4,0.00768 0.00112,0.010722 0.00845,0.020132 0.02277,0.020253 0.011648,1.6e-4 0.023283,2.284e-4 0.034887,3.539e-4 0.013465,1.261e-4 0.027945,-0.00865 0.028291,-0.023441 0.010392,-0.4131826 0.1335153,-0.8037774 0.3630195,-1.148674 0.2788686,0.2966854 0.500225,0.649492 0.6137637,1.0191798 0.0037,0.012253 0.015722,0.024943 0.030448,0.020667 l 0.033367,-0.00969 c 0.012383,-0.00356 0.025416,-0.015625 0.020995,-0.030053 C 4.8635843,7.3843794 4.3622471,6.8116317 3.7890076,6.4518205 c 0.057162,0.00547 0.3216142,0.021634 0.4851245,-0.1261879 0.184123,-0.1664017 0.1698702,-0.4776448 0.1698702,-0.4776448 0,0 -0.019499,-0.00259 -0.051698,-0.00391 z m 2.9391684,0.087864 c 0,0 -0.133762,0.1694732 -0.097431,0.3356325 0.036371,0.1661203 0.2289881,0.2660144 0.2289881,0.2660144 0,0 0.1338052,-0.1695313 0.097431,-0.3356913 C 7.5241143,6.0317867 7.3315033,5.9319508 7.3315033,5.9319512 Z M 2.0295695,6.195426 c -0.3048068,0.00862 -0.5434188,0.3077025 -0.5434188,0.3077025 0,0 0.2555481,0.2849558 0.5603549,0.2762891 0.3048074,-0.00862 0.5434825,-0.3076439 0.5434825,-0.3076439 0,0 -0.2556117,-0.2849742 -0.5604186,-0.2763477 z m 3.0981279,0.040626 c 0,0 -0.2919054,0.1184362 -0.3670788,0.3534064 -0.075303,0.2350104 0.09464,0.4976027 0.09464,0.4976027 0,0 0.2917749,-0.1184552 0.3670788,-0.3534651 0.075173,-0.2350096 -0.09464,-0.4975437 -0.09464,-0.497544 z m 0.7615605,0.1219353 c -0.044624,-0.0015 -0.090399,0.00282 -0.1353633,0.015649 -0.2397668,0.068367 -0.3670156,0.3534064 -0.3670156,0.3534064 0,0 0.2615745,0.1743403 0.5014274,0.1059335 0.2397669,-0.068327 0.3669521,-0.3534064 0.3669521,-0.3534064 0,0 -0.1726344,-0.1151015 -0.3660006,-0.1215825 z m -2.7613063,0.050133 c -0.011474,0.00143 -0.022987,0.00288 -0.034504,0.00432 -0.014683,0.00185 -0.022492,0.016914 -0.020933,0.030054 0.060581,0.5233515 -0.021682,1.0455571 -0.2386293,1.5267039 -0.00607,0.013421 0.00328,0.027602 0.015413,0.033127 0.010522,0.00477 0.021088,0.00957 0.031654,0.014411 0.013422,0.00608 0.028247,-0.00322 0.03362,-0.015176 0.2234399,-0.4955378 0.3062924,-1.0339121 0.243893,-1.572703 -0.00161,-0.013744 -0.011486,-0.019988 -0.022139,-0.020431 -0.00266,-4.454e-4 -0.00532,-6.907e-4 -0.00837,-2.97e-4 z m 0.5337138,0.3884222 c -0.015283,6.331e-4 -0.030647,0.00213 -0.046053,0.00455 -0.2464352,0.038698 -0.4083096,0.3061671 -0.4083096,0.3061671 0,0 0.2378862,0.2047434 0.4843641,0.1660455 0.2464791,-0.038739 0.4082466,-0.306227 0.4082466,-0.306227 0,0 -0.2089941,-0.1799586 -0.4382498,-0.1705321 z m -1.8544241,0.011044 c -0.1742925,0.00495 -0.3098634,0.2051353 -0.3098634,0.2051353 0,0 0.1470084,0.1922016 0.3213453,0.1872434 0.1742491,-0.00501 0.3098633,-0.2052532 0.3098633,-0.2052532 0,0 -0.1470516,-0.1921238 -0.3213452,-0.1871255 z m 4.5373922,0.047947 c -0.044619,-0.0015 -0.090344,0.00282 -0.1352995,0.015649 -0.2398103,0.068325 -0.3670795,0.3534649 -0.3670795,0.3534649 0,0 0.2615542,0.1743001 0.5013644,0.1059336 0.2397664,-0.068327 0.3669515,-0.3534656 0.3669515,-0.3534656 0,0 -0.1725942,-0.1151132 -0.3659369,-0.1215819 z m -3.6485879,0.21352 c -0.061311,0.00345 -0.1241657,0.016408 -0.182873,0.044758 -0.234787,0.113474 -0.3137329,0.4303463 -0.3137329,0.4303463 0,0 0.3017811,0.132979 0.5365676,0.019545 C 2.9708382,7.4503093 3.0496771,7.133415 3.0496771,7.133415 c 0,0 -0.1697001,-0.074798 -0.3536315,-0.064363 z M 5.293381,7.2231707 c -0.2295902,0.00132 -0.4347605,0.1076457 -0.4347605,0.1076457 0,0 0.1235283,0.3879669 0.4246115,0.510712 0.3011263,0.1227456 0.6657785,-0.066253 0.6657785,-0.066253 0,0 -0.1235282,-0.387907 -0.4246114,-0.5106526 C 5.4491281,7.2339258 5.3699108,7.2227198 5.293381,7.2231688 Z m -0.9641608,0.035607 c 0,0 -0.1921014,0.2471901 -0.1375833,0.4876835 0.054516,0.2404924 0.3349824,0.3832252 0.3349824,0.3832252 0,0 0.1920581,-0.247131 0.1375832,-0.4876238 C 4.6096431,7.4015702 4.3292202,7.2587775 4.3292202,7.2587777 Z m -1.1400569,0.062709 c 0,0 -0.1117292,0.3303735 0.034634,0.5648597 0.1463625,0.2345667 0.4954005,0.2844371 0.4954005,0.2844371 0,0 0.111793,-0.3303135 -0.034571,-0.5648003 C 3.5382632,7.3714573 3.1891616,7.3214873 3.1891616,7.3214873 Z" />
  </g>
</svg>
